<svg data-v-6805eed4="" version="1.0" xmlns="http://www.w3.org/2000/svg" xmlns:xlink="http://www.w3.org/1999/xlink" width="100%" height="100%" viewBox="0 -40.22999954223633 340 290.2299995422363" preserveAspectRatio="xMidYMid meet" color-interpolation-filters="sRGB" style="margin: auto;" speechify-initial-font-family="&amp;quot;Helvetica Neue&amp;quot;, Arial, sans-serif" speechify-initial-font-size="0px"><rect data-v-6805eed4="" x="0" y="0" width="100%" height="100%" fill="#fff" fill-opacity="1" class="background" speechify-initial-font-family="&amp;quot;Helvetica Neue&amp;quot;, Arial, sans-serif" speechify-initial-font-size="0px"/><rect data-v-6805eed4="" x="0" y="0" width="100%" height="100%" fill="url(#watermark)" fill-opacity="1" class="watermarklayer" speechify-initial-font-family="&amp;quot;Helvetica Neue&amp;quot;, Arial, sans-serif" speechify-initial-font-size="0px"/><g data-v-6805eed4="" fill="#333" class="icon-text-wrapper icon-svg-group iconsvg" transform="translate(48.470001220703125,95.43752479553223)" speechify-initial-font-family="&amp;quot;Helvetica Neue&amp;quot;, Arial, sans-serif" speechify-initial-font-size="0px"><g class="iconsvg-imagesvg" transform="translate(0,0)" speechify-initial-font-family="&amp;quot;Helvetica Neue&amp;quot;, Arial, sans-serif" speechify-initial-font-size="0px"><g speechify-initial-font-family="&amp;quot;Helvetica Neue&amp;quot;, Arial, sans-serif" speechify-initial-font-size="0px"><rect fill="#333" fill-opacity="0" stroke-width="2" x="0" y="0" width="60" height="59.12495072920773" class="image-rect" speechify-initial-font-family="&amp;quot;Helvetica Neue&amp;quot;, Arial, sans-serif" speechify-initial-font-size="0px"/><svg x="0" y="0" width="60" height="59.12495072920773" filtersec="colorsb8709622065" class="image-svg-svg primary" style="overflow: visible;" speechify-initial-font-family="&amp;quot;Helvetica Neue&amp;quot;, Arial, sans-serif" speechify-initial-font-size="0px"><svg xmlns="http://www.w3.org/2000/svg" viewBox="0 0 101.47999572753906 100" speechify-initial-font-family="&amp;quot;Helvetica Neue&amp;quot;, Arial, sans-serif" speechify-initial-font-size="0px"><title speechify-initial-font-family="&amp;quot;Helvetica Neue&amp;quot;, Arial, sans-serif" speechify-initial-font-size="0px">资源 306</title><rect x="42.96" width="13.33" height="32.59" rx="6.3" fill="#f1b043" speechify-initial-font-family="&amp;quot;Helvetica Neue&amp;quot;, Arial, sans-serif" speechify-initial-font-size="0px"/><rect x="57.75" y="19.96" width="32.59" height="13.33" rx="6.3" transform="rotate(-45 74.05 26.628)" fill="#f1b043" speechify-initial-font-family="&amp;quot;Helvetica Neue&amp;quot;, Arial, sans-serif" speechify-initial-font-size="0px"/><rect x="68.89" y="43.7" width="32.59" height="13.33" rx="6.3" fill="#f1b043" speechify-initial-font-family="&amp;quot;Helvetica Neue&amp;quot;, Arial, sans-serif" speechify-initial-font-size="0px"/><rect x="18.62" y="10.21" width="13.33" height="32.59" rx="6.3" transform="rotate(-45 25.297 26.502)" fill="#f1b043" speechify-initial-font-family="&amp;quot;Helvetica Neue&amp;quot;, Arial, sans-serif" speechify-initial-font-size="0px"/><rect x="67.51" y="59.1" width="13.33" height="32.59" rx="6.3" transform="rotate(-45 74.183 75.403)" fill="#f1b043" speechify-initial-font-family="&amp;quot;Helvetica Neue&amp;quot;, Arial, sans-serif" speechify-initial-font-size="0px"/><path d="M53 44.47a6.25 6.25 0 0 0-3-.77H6.3A6.32 6.32 0 0 0 0 50v.74A6.32 6.32 0 0 0 6.3 57h28L5.67 85.65a6.31 6.31 0 0 0 0 8.9l.52.53a6.31 6.31 0 0 0 8.9 0L43 67.21V93.7a6.32 6.32 0 0 0 6.3 6.3h.7a6.32 6.32 0 0 0 6.3-6.3V50a6.31 6.31 0 0 0-3.3-5.53z" fill="#4F8FCE" speechify-initial-font-family="&amp;quot;Helvetica Neue&amp;quot;, Arial, sans-serif" speechify-initial-font-size="0px"/></svg></svg></g></g><g transform="translate(67,9.082475662231445)" speechify-initial-font-family="&amp;quot;Helvetica Neue&amp;quot;, Arial, sans-serif" speechify-initial-font-size="0px"><g data-gra="path-name" fill-rule="" class="tp-name iconsvg-namesvg" speechify-initial-font-family="&amp;quot;Helvetica Neue&amp;quot;, Arial, sans-serif" speechify-initial-font-size="0px"><g transform="scale(1)" speechify-initial-font-family="&amp;quot;Helvetica Neue&amp;quot;, Arial, sans-serif" speechify-initial-font-size="0px"><g speechify-initial-font-family="&amp;quot;Helvetica Neue&amp;quot;, Arial, sans-serif" speechify-initial-font-size="0px"><path d="M29.03-21.04L29.03-21.04Q31.28-19.47 32.64-16.99 33.99-14.52 33.99-11.59L33.99-11.59 33.99-11.48Q33.99-9.12 33.09-7.01 32.19-4.9 30.61-3.35 29.03-1.8 26.95-0.9 24.87 0 22.51 0L22.51 0 11.31 0 14.01-6.75 22.51-6.75Q24.48-6.75 25.85-8.13 27.23-9.51 27.23-11.48L27.23-11.48 27.23-11.59Q27.23-13.56 25.85-14.94 24.48-16.32 22.51-16.32L22.51-16.32 19.75-16.32 8.72-16.32 8.72-6.75 8.72 0 1.97 0 1.97-16.32 1.97-23.07 1.97-39.39 19.75-39.39Q22.11-39.39 24.22-38.49 26.33-37.59 27.88-36.01 29.43-34.44 30.33-32.35 31.23-30.27 31.23-27.91L31.23-27.91 31.23-27.8Q31.23-25.88 30.64-24.17 30.05-22.45 29.03-21.04ZM24.48-27.8L24.48-27.91Q24.48-29.88 23.1-31.26 21.72-32.64 19.75-32.64L19.75-32.64 8.72-32.64 8.72-23.07 19.75-23.07Q21.72-23.07 23.1-24.45 24.48-25.83 24.48-27.8L24.48-27.8ZM58.8-39.39L58.8-39.39 76.58 0 69.15 0 66.11-6.75 66.11-6.75 63.08-13.5 63.08-13.5 55.09-31.17 47.1-13.5 57.34-13.5 60.38-6.75 44.06-6.75 41.02 0 33.59 0 51.37-39.39 58.8-39.39ZM105.05-11.25L105.05-11.25Q105.05-8.5 104.15-6.27 103.25-4.05 101.59-2.5 99.93-0.96 97.57-0.11 95.2 0.73 92.28 0.73L92.28 0.73Q87.61 0.73 83.95-0.76 80.29-2.25 77.93-4.16L77.93-4.16 82.6-8.83Q84.46-7.15 86.76-6.25L86.76-6.25Q88.17-5.68 89.41-5.51 90.65-5.35 91.43-5.35L91.43-5.35Q92.9-5.35 94.11-5.71 95.32-6.08 96.22-6.7L96.22-6.7Q98.13-8.1 98.13-10.41L98.13-10.41Q98.13-11.82 97.12-12.94L97.12-12.94Q96.33-13.84 95.09-14.4L95.09-14.4Q94.08-14.97 92.95-15.3 91.83-15.64 90.93-15.92L90.93-15.92Q90.65-16.04 90.42-16.06 90.2-16.09 90.03-16.21L90.03-16.21Q89.92-16.21 89.69-16.32L89.69-16.32Q88.51-16.66 86.29-17.5 84.06-18.34 81.87-19.81L81.87-19.81Q76.75-23.24 76.75-28.25L76.75-28.25Q76.75-31.57 77.9-33.84 79.06-36.12 80.91-37.56 82.77-38.99 85.05-39.61 87.33-40.23 89.52-40.23L89.52-40.23Q93.57-40.23 96.33-39.27 99.09-38.32 100.72-37.36L100.72-37.36Q101.56-36.86 102.15-36.38 102.74-35.9 103.19-35.5L103.19-35.5 98.41-30.67Q96.89-32.19 95.32-32.97L95.32-32.97Q92.95-34.1 90.37-34.1L90.37-34.1Q89.24-34.1 88.12-33.82 86.99-33.54 86.15-33.09L86.15-33.09Q83.67-31.57 83.67-29.09L83.67-29.09Q83.67-27.57 84.68-26.5L84.68-26.5Q85.41-25.66 86.71-24.98L86.71-24.98Q87.78-24.42 88.96-24.08 90.14-23.74 91.15-23.46L91.15-23.46 91.83-23.29Q92.11-23.18 92.9-22.96 93.69-22.73 94.75-22.28 95.82-21.83 97.09-21.21 98.36-20.59 99.59-19.75L99.59-19.75Q105.05-16.15 105.05-11.25ZM134.93-32.64L134.93-32.64 115.18-32.64 115.18-23.07 129.87-23.07 131.55-16.32 115.18-16.32 115.18-6.75 134.93-6.75 134.93 0 108.43 0 108.43-39.39 134.93-39.39 134.93-32.64ZM170.66-39.44L170.66-39.44 178.03-39.44 178.03-0.06 171.28-0.06 171.28-27.96 158.28-7.88 145.34-27.96 145.34-0.06 138.59-0.06 138.59-39.44 145.96-39.44 158.28-20.31 170.66-39.44Z" transform="translate(-1.9700000286102295, 40.22999954223633)" speechify-initial-font-family="&amp;quot;Helvetica Neue&amp;quot;, Arial, sans-serif" speechify-initial-font-size="0px"/></g></g></g></g></g><defs v-gra="od" speechify-initial-font-family="&amp;quot;Helvetica Neue&amp;quot;, Arial, sans-serif" speechify-initial-font-size="0px"/></svg>