<svg xmlns="http://www.w3.org/2000/svg" width="378.66" height="40.97" viewBox="0 0 378.66 40.97">
  <g id="svgviewer-output_1_" data-name="svgviewer-output (1)" transform="translate(-109.638 -104.519)">
    <g id="Group_4" data-name="Group 4">
      <path id="Path_2" data-name="Path 2" d="M32.081-27.677h0v6.745H20V11.656H12.935V-20.932H.79v-6.745Zm19.439,0h0L70.129,11.656H62.341L59.176,4.911h0L55.987-1.834h0L47.619-19.476,39.264-1.834H49.971l3.187,6.745H36.078L32.89,11.656H25.123L43.73-27.677ZM82.789,11.656H75.426L62.475-27.677h7.408L79.018.029l8.418-27.707h7.43L103.98.029l8.44-27.706h7.363L107.75,11.656h-7.362L91.275-16.051Zm55.822-39.333h0l18.612,39.333h-7.766l-3.19-6.745h0L143.1-1.834h0l-8.372-17.642L126.381-1.834h10.707l3.187,6.745h-17.08l-3.187,6.745H112.24l18.607-39.333Zm38.34,0h0a20.972,20.972,0,0,1,8.013,1.541,21.371,21.371,0,0,1,6.578,4.218,20.272,20.272,0,0,1,4.421,6.274A18.439,18.439,0,0,1,197.579-8h0a18.291,18.291,0,0,1-1.616,7.622A20.272,20.272,0,0,1,191.542,5.9a20.858,20.858,0,0,1-6.578,4.218,20.972,20.972,0,0,1-8.01,1.542h-7.3l2.894-6.745h4.4a13.867,13.867,0,0,0,5.185-.986,13.955,13.955,0,0,0,4.421-2.784h0a13.343,13.343,0,0,0,2.918-4.175A12.14,12.14,0,0,0,190.511-8h0a12.188,12.188,0,0,0-1.034-4.946,13.522,13.522,0,0,0-2.918-4.218h0a13.955,13.955,0,0,0-4.421-2.784,13.867,13.867,0,0,0-5.185-.986H166.942v32.59h-7.049V-27.677Zm54.366,14.111h0a13.484,13.484,0,0,1-.605,4.068,14.506,14.506,0,0,1-1.706,3.575,14.308,14.308,0,0,1-2.649,2.933A14.845,14.845,0,0,1,222.9-.807h0l8.421,12.462H222.9L215.428.587H210.6l2.874-6.745h3.075a7.707,7.707,0,0,0,5.476-2.189h0a7.883,7.883,0,0,0,1.639-2.42,7,7,0,0,0,.591-2.8h0a7,7,0,0,0-.591-2.8,7.377,7.377,0,0,0-1.639-2.376h0a7.708,7.708,0,0,0-5.477-2.183h-8.373V11.656H201.1V-27.677h15.444a14.648,14.648,0,0,1,5.746,1.135,15.119,15.119,0,0,1,4.67,3.019,14.946,14.946,0,0,1,3.184,4.47,13,13,0,0,1,1.173,5.485Zm24.692-8.2h0a14.669,14.669,0,0,0-5.477,1.028,14.637,14.637,0,0,0-4.67,3.019h0a14.136,14.136,0,0,0-3.143,4.432,12.664,12.664,0,0,0-1.1,5.223h0a12.811,12.811,0,0,0,1.1,5.246,13.989,13.989,0,0,0,3.143,4.474h0a14.045,14.045,0,0,0,4.67,2.977,14.945,14.945,0,0,0,5.477,1.006h0a15.241,15.241,0,0,0,5.5-1.006,13.989,13.989,0,0,0,4.69-2.977h0a13.689,13.689,0,0,0,3.12-4.475,13.28,13.28,0,0,0,1.054-5.244h0a13.127,13.127,0,0,0-1.054-5.225,13.827,13.827,0,0,0-3.12-4.432h0a14.571,14.571,0,0,0-4.692-3.022,14.959,14.959,0,0,0-5.5-1.024Zm0-6.745h0a21.794,21.794,0,0,1,8.328,1.606,21.473,21.473,0,0,1,6.824,4.367,20.6,20.6,0,0,1,4.6,6.531,19.066,19.066,0,0,1,1.686,7.943h0a19.065,19.065,0,0,1-1.684,7.943,20.594,20.594,0,0,1-4.6,6.531,21.473,21.473,0,0,1-6.824,4.367,21.8,21.8,0,0,1-8.328,1.606h0a21.849,21.849,0,0,1-8.35-1.606,21.473,21.473,0,0,1-6.824-4.367,20.594,20.594,0,0,1-4.6-6.531,19.285,19.285,0,0,1-1.658-7.943h0a19.285,19.285,0,0,1,1.661-7.943,20.594,20.594,0,0,1,4.6-6.531,21.473,21.473,0,0,1,6.824-4.367,21.849,21.849,0,0,1,8.347-1.606Zm52.234.835h7.071v23.6a15.639,15.639,0,0,1-1.347,6.445,16.86,16.86,0,0,1-3.726,5.246,17.449,17.449,0,0,1-5.5,3.533,17.429,17.429,0,0,1-6.756,1.306h0a17.369,17.369,0,0,1-6.734-1.306,17.447,17.447,0,0,1-5.5-3.533,16.859,16.859,0,0,1-3.723-5.25,15.638,15.638,0,0,1-1.347-6.445h0v-23.6h7.071v23.6a9.4,9.4,0,0,0,.763,3.747,9.709,9.709,0,0,0,2.245,3.169h0a9.933,9.933,0,0,0,3.323,2.141,10.636,10.636,0,0,0,3.906.728h0a10.126,10.126,0,0,0,7.251-2.869h0a9.711,9.711,0,0,0,2.245-3.169,9.4,9.4,0,0,0,.764-3.747h0ZM348.181.415h0a12.52,12.52,0,0,1-.942,4.967,10.414,10.414,0,0,1-2.672,3.768,12.5,12.5,0,0,1-4.221,2.395,17.245,17.245,0,0,1-5.544.835h0a24.11,24.11,0,0,1-8.712-1.48,26.041,26.041,0,0,1-6.3-3.4h0l4.894-4.668a14.215,14.215,0,0,0,4.355,2.591h0a12.652,12.652,0,0,0,2.784.728,16.49,16.49,0,0,0,2.11.172h0a10.229,10.229,0,0,0,2.806-.363,8.039,8.039,0,0,0,2.2-.986h0a4.343,4.343,0,0,0,2-3.7h0a3.573,3.573,0,0,0-1.054-2.527h0a6.43,6.43,0,0,0-2.11-1.478h0a12.623,12.623,0,0,0-2.245-.9q-1.19-.321-2.133-.621h0a2.112,2.112,0,0,0-.517-.128.843.843,0,0,1-.427-.149h0a.89.89,0,0,1-.337-.107h0q-1.235-.342-3.569-1.178A22.536,22.536,0,0,1,323.92-8.13h0q-5.365-3.426-5.365-8.415h0a11.743,11.743,0,0,1,1.212-5.588,10.709,10.709,0,0,1,3.143-3.7,12.64,12.64,0,0,1,4.333-2.055,18.524,18.524,0,0,1,4.692-.621h0a22.627,22.627,0,0,1,7.115.964,25.869,25.869,0,0,1,4.6,1.906h0a11.917,11.917,0,0,1,1.5.986q.606.47,1.078.856h0l-5.006,4.839a12.308,12.308,0,0,0-3.233-2.313h0a12.474,12.474,0,0,0-5.185-1.113h0a10.319,10.319,0,0,0-2.363.282,9.562,9.562,0,0,0-2.067.728h0A4.528,4.528,0,0,0,325.8-17.4h0a3.555,3.555,0,0,0,1.054,2.591h0a6.778,6.778,0,0,0,2.132,1.52h0a12.457,12.457,0,0,0,2.363.9q1.235.342,2.289.621h0l.7.172q.315.107,1.122.321a20.18,20.18,0,0,1,1.952.685q1.122.449,2.447,1.071a21.342,21.342,0,0,1,2.6,1.454h0Q348.181-4.468,348.181.415ZM379.45-20.932H358.775v9.549h15.376l1.772,6.745H358.775V4.911H379.45v6.745H351.7V-27.677h27.75Z" transform="translate(108.848 133.035)" fill="#1e90ff"/>
    </g>
  </g>
</svg>
